<?xml version="1.0" standalone="no"?>
<!DOCTYPE svg PUBLIC "-//W3C//DTD SVG 20010904//EN"
 "http://www.w3.org/TR/2001/REC-SVG-20010904/DTD/svg10.dtd">
<svg version="1.0" xmlns="http://www.w3.org/2000/svg"
 width="3936.000000pt" height="2624.000000pt" viewBox="0 0 3936.000000 2624.000000"
 preserveAspectRatio="xMidYMid meet">

<g transform="translate(0.000000,2624.000000) scale(0.100000,-0.100000)"
fill="#000000" stroke="none">
<path d="M2 18691 c2 -4152 7 -7553 11 -7558 5 -4 270 -6 590 -3 766 7 811 6
1162 -11 348 -16 934 -16 1279 2 186 9 285 9 450 0 287 -17 1521 0 1671 22
352 53 332 52 1140 52 l760 0 60 24 c50 19 88 25 230 32 94 4 195 12 225 18
30 6 137 15 237 20 171 9 274 24 503 73 52 11 116 21 142 23 84 5 152 17 218
37 53 17 77 32 141 92 91 83 176 136 316 195 56 23 123 56 149 73 43 27 316
158 330 158 14 0 144 91 190 133 l52 47 106 0 c60 0 106 4 106 9 0 6 62 30
138 55 118 38 157 46 277 56 148 12 234 34 343 89 71 35 182 76 247 92 28 7
86 29 131 50 131 61 191 77 334 89 l134 12 167 159 c91 87 171 159 178 159 6
0 28 11 49 23 20 13 71 36 112 52 41 15 125 56 186 91 61 35 114 64 118 64 4
0 57 23 117 51 118 55 186 71 381 89 188 17 300 58 648 231 129 64 264 129
299 144 35 14 97 47 138 72 80 48 160 86 208 97 17 4 104 43 195 86 114 55
193 86 255 100 109 25 233 84 377 179 58 38 141 90 185 114 43 25 133 76 199
114 67 39 173 94 235 122 156 72 196 95 414 240 199 133 461 288 587 345 131
61 441 183 528 209 118 35 293 71 510 107 197 32 223 38 425 94 162 46 244 53
350 31 44 -9 161 -20 260 -25 99 -5 239 -18 310 -30 141 -23 295 -27 415 -11
41 6 170 11 285 11 136 0 242 6 300 15 120 20 267 19 336 -1 73 -22 160 -67
204 -105 19 -17 58 -62 86 -100 28 -37 56 -66 63 -63 16 6 182 -76 255 -126
108 -73 312 -189 325 -184 7 3 54 -4 104 -16 170 -38 255 -28 617 71 288 79
428 98 540 73 44 -9 96 -18 115 -19 19 -1 89 -5 155 -9 149 -10 320 12 436 54
43 16 118 36 166 45 48 9 107 22 130 30 32 10 43 11 46 1 3 -7 33 -20 68 -30
35 -9 136 -49 224 -88 548 -243 582 -256 740 -298 284 -76 531 -78 675 -5 29
15 51 21 55 15 3 -6 28 -10 56 -10 27 0 113 -14 192 -30 84 -18 189 -33 257
-37 63 -3 120 -9 125 -13 6 -4 28 -13 50 -20 75 -23 221 -107 487 -277 262
-169 344 -225 506 -344 46 -33 159 -109 250 -168 92 -59 208 -138 257 -175 50
-38 160 -115 245 -171 85 -57 202 -143 260 -191 231 -192 355 -275 608 -406
97 -50 194 -102 214 -114 20 -13 81 -42 135 -64 151 -63 199 -87 315 -156 59
-36 131 -75 160 -88 29 -13 119 -62 201 -109 107 -62 170 -91 230 -107 45 -12
111 -35 147 -50 36 -15 85 -34 110 -42 25 -9 77 -29 115 -46 39 -17 131 -56
205 -87 74 -31 178 -80 230 -110 52 -29 201 -103 330 -164 129 -61 258 -122
285 -135 28 -13 79 -36 115 -51 36 -15 156 -75 268 -132 112 -57 252 -121 310
-142 59 -22 134 -51 167 -66 33 -15 110 -44 170 -65 61 -21 182 -70 270 -108
88 -39 207 -84 265 -102 134 -41 196 -69 294 -132 44 -28 131 -75 193 -105 62
-29 151 -78 197 -109 64 -42 95 -57 128 -59 73 -5 168 -42 275 -105 55 -33
108 -60 116 -60 8 0 91 -30 184 -66 92 -36 218 -83 279 -104 60 -21 155 -60
210 -88 108 -54 222 -97 351 -132 45 -12 87 -28 94 -36 6 -8 17 -14 23 -14 23
0 370 -118 496 -168 167 -66 461 -165 585 -196 136 -34 314 -96 455 -159 30
-13 89 -32 130 -42 96 -23 173 -51 230 -84 25 -14 92 -38 150 -53 58 -15 173
-48 255 -73 83 -25 184 -52 225 -61 41 -9 118 -29 171 -45 53 -16 154 -38 225
-48 128 -20 128 -20 344 -125 120 -59 244 -112 280 -121 36 -9 92 -24 125 -35
33 -10 84 -26 114 -35 30 -10 66 -25 80 -35 14 -9 45 -29 68 -43 23 -15 51
-44 62 -64 20 -37 20 -37 21 -10 0 15 5 27 10 27 7 0 10 2948 10 8825 l0 8825
-19680 0 -19680 0 2 -7549z"/>
</g>
</svg>
